<?xml version="1.0" encoding="utf-8"?>
<!-- Generator: Adobe Illustrator 20.1.0, SVG Export Plug-In . SVG Version: 6.00 Build 0)  -->
<svg version="1.1" id="Layer_1" xmlns="http://www.w3.org/2000/svg" xmlns:xlink="http://www.w3.org/1999/xlink" x="0px" y="0px"
	 viewBox="0 0 500.8 118.7" style="enable-background:new 0 0 500.8 118.7;" xml:space="preserve">
<style type="text/css">
	.st0{fill:#4B4BA0;}
</style>
<g>
	<polygon class="st0" points="151.1,0 94.1,67 108.7,13.7 95.5,0 38.3,67 52.9,13.7 39.5,0 0,41 11.6,52.8 30.2,33.8 13.7,93.9 
		27.1,107.7 55.4,74.5 83.8,41.4 69.5,93.9 82.9,107.7 139.9,41.1 125.3,93.9 138.7,107.7 178.4,66.7 166.8,54.7 148,73.9 
		164.5,13.7 	"/>
	<g>
		<path class="st0" d="M487.2,103.2c-2.6,0-4-1.7-4-3.6c0-2.3,1.6-3.5,3.7-3.8l7.2-1.1V96C494.1,101.4,490.9,103.2,487.2,103.2
			 M476.6,99.9c0,4.5,3.6,8.5,9.3,8.5c4.5,0,7.2-2.3,8.5-4.5c0,2.3,0.2,3.4,0.3,3.6h6.1c-0.1-0.3-0.3-2-0.3-4.5V89
			c0-5.6-3.2-10.5-11.7-10.5c-6.8,0-11.1,4.3-11.6,9.2l6,1.4c0.3-2.8,2.2-5.1,5.7-5.1c3.6,0,5.2,1.9,5.2,4.3c0,1-0.5,1.8-2,2
			l-7.1,1.1C480.3,92.1,476.6,94.9,476.6,99.9 M463.5,69.4c0,2.4,1.9,4.3,4.2,4.3c2.4,0,4.3-1.9,4.3-4.3c0-2.4-1.9-4.4-4.3-4.4
			C465.4,65,463.5,67,463.5,69.4 M471,79.3h-6.5v28.2h6.5V79.3z M439.7,91c0.1-3.6,2.1-6.4,5.7-6.4c4.1,0,5.7,2.8,5.7,6.3v16.7h6.6
			V89.8c0-6.2-3.3-11.2-10.1-11.2c-2.9,0-6,1-7.9,3.5V65.7h-6.6v41.9h6.6L439.7,91L439.7,91z M421.4,93.4c0,5.4-3.1,8.9-7.4,8.9
			s-7.4-3.5-7.4-8.9c0-5.3,3.1-8.7,7.4-8.7C418.4,84.7,421.4,88.1,421.4,93.4 M406.6,118.6v-14.2c1.4,2.1,4.4,3.9,8.4,3.9
			c7.9,0,13-6.4,13-14.8c0-8.3-4.6-14.7-12.7-14.7c-4.2,0-7.4,2-8.8,4.5v-3.8h-6.3v39.2L406.6,118.6L406.6,118.6z M392.8,65.6h-6.6
			v41.9h6.6V65.6z M375.2,97.7c-0.9,2.8-2.9,4.9-6.9,4.9c-4.1,0-7.4-3.1-7.5-7.4h20.1c0.1-0.1,0.2-1,0.2-2.1c0-8.9-5-14.7-13.5-14.7
			c-7,0-13.4,5.9-13.4,14.8c0,9.6,6.6,15.1,14.1,15.1c6.6,0,11-4,12.4-8.9L375.2,97.7z M360.9,90.4c0.2-3,2.6-6.3,6.7-6.3
			c4.5,0,6.7,3,6.8,6.3H360.9z M348.9,65.6h-6.4v17c-0.8-1.8-3.3-4.1-8.1-4.1c-7.8,0-13.1,6.7-13.1,14.8c0,8.5,5.3,14.9,13.2,14.9
			c3.9,0,6.8-2,8.1-4.3c0,1.2,0.2,3,0.3,3.6h6.3c-0.1-0.5-0.3-2.6-0.3-5.2V65.6z M327.8,93.4c0-5.4,3.2-8.8,7.5-8.8s7.2,3.4,7.2,8.7
			c0,5.4-3,9-7.3,9C330.7,102.3,327.8,98.7,327.8,93.4 M303.4,103.2c-2.6,0-4-1.7-4-3.6c0-2.3,1.6-3.5,3.7-3.8l7.2-1.1V96
			C310.2,101.4,307,103.2,303.4,103.2 M292.8,99.9c0,4.5,3.6,8.5,9.3,8.5c4.5,0,7.2-2.3,8.5-4.5c0,2.3,0.2,3.4,0.3,3.6h6.1
			c-0.1-0.3-0.3-2-0.3-4.5V89c0-5.6-3.2-10.5-11.7-10.5c-6.8,0-11.1,4.3-11.6,9.2l6,1.4c0.3-2.8,2.2-5.1,5.7-5.1
			c3.6,0,5.2,1.9,5.2,4.3c0,1-0.5,1.8-2,2l-7.1,1.1C296.4,92.1,292.8,94.9,292.8,99.9 M287.2,65.6h-6.6v41.9h6.6V65.6z M265.8,69.4
			c0,2.4,1.9,4.3,4.2,4.3c2.4,0,4.3-1.9,4.3-4.3c0-2.4-1.9-4.4-4.3-4.4C267.7,65,265.8,67,265.8,69.4 M273.3,79.3h-6.5v28.2h6.5
			V79.3z M242,91c0.1-3.6,2.1-6.4,5.7-6.4c4.1,0,5.7,2.8,5.7,6.3v16.7h6.6V89.8c0-6.2-3.3-11.2-10.1-11.2c-2.9,0-6,1-7.9,3.5V65.7
			h-6.6v41.9h6.6L242,91L242,91z M218.5,91.5c7.7,0,12.8-5.3,12.8-12.5s-5.1-12.5-12.8-12.5h-14.9v41.1h6.8v-16L218.5,91.5
			L218.5,91.5z M210.4,85.4V72.7h7.1c4.3,0,6.9,2.5,6.9,6.4s-2.6,6.3-6.9,6.3H210.4z"/>
		<path class="st0" d="M442.8,47.4c0.3,3.2,3.4,8.5,11.4,8.5c7,0,10.4-4.8,10.4-9s-2.7-7.4-7.9-8.6l-4.2-0.9c-1.7-0.3-2.8-1.4-2.8-3
			c0-1.7,1.6-3.2,4-3.2c3.7,0,4.9,2.6,5.1,4.2l5.5-1.6c-0.5-2.8-2.9-7.9-10.6-7.9c-5.7,0-10.1,4.2-10.1,9.1c0,3.9,2.5,7.1,7.4,8.2
			l4.1,0.9c2.2,0.5,3.2,1.6,3.2,3.1c0,1.7-1.4,3.2-4.1,3.2c-3.5,0-5.4-2.3-5.6-4.8L442.8,47.4z M433.5,18.2h-5.9v4.2
			c0,2.5-1.3,4.4-4.2,4.4H422v6h5.1V47c0,5.3,3.2,8.4,8.3,8.4c2.4,0,3.6-0.5,4-0.6v-5.6c-0.3,0.1-1.4,0.2-2.3,0.2
			c-2.4,0-3.5-1-3.5-3.5V32.8h5.7v-6h-5.7v-8.6H433.5z M418.5,26.7c-0.3-0.1-1-0.2-1.8-0.2c-3.6,0-6.7,1.8-8,4.9v-4.5h-6.4v28.2h6.6
			V41.6c0-5.3,2.3-8.3,7.4-8.3c0.7,0,1.4,0.1,2.2,0.2L418.5,26.7L418.5,26.7z M379.2,21.5l6.1,16.8h-12.2L379.2,21.5z M391.4,55.1
			h7.4L383.2,14h-7.9l-15.6,41.1h7.2l3.7-10.3h17L391.4,55.1z M343.2,13.1h-6.6V55h6.6V13.1z M316.5,50.7c-2.6,0-4-1.7-4-3.6
			c0-2.3,1.6-3.5,3.7-3.8l7.2-1.1v1.3C323.4,48.9,320.2,50.7,316.5,50.7 M306,47.4c0,4.5,3.6,8.5,9.3,8.5c4.5,0,7.2-2.3,8.5-4.5
			c0,2.3,0.2,3.4,0.3,3.6h6.1c-0.1-0.3-0.3-2-0.3-4.5v-14c0-5.6-3.2-10.5-11.7-10.5c-6.8,0-11.1,4.3-11.6,9.2l6,1.4
			c0.3-2.8,2.2-5.1,5.7-5.1c3.6,0,5.2,1.9,5.2,4.3c0,1-0.5,1.8-2,2l-7.1,1.1C309.6,39.6,306,42.4,306,47.4 M303.3,26.7
			c-0.3-0.1-1-0.2-1.8-0.2c-3.6,0-6.7,1.8-8,4.9v-4.5h-6.4v28.2h6.6V41.6c0-5.3,2.3-8.3,7.4-8.3c0.7,0,1.4,0.1,2.1,0.2L303.3,26.7
			L303.3,26.7z M273.6,51.9c0,1.2,0.1,2.5,0.2,3.1h6.3c-0.1-1-0.3-2.8-0.3-5.2V26.9h-6.6v16.7c0,3.7-2,6.3-5.8,6.3
			c-4,0-5.5-3-5.5-6.4V26.9h-6.6v17.8c0,6.3,3.8,11.2,10.4,11.2C269,55.9,272.2,54.5,273.6,51.9 M247.7,55.1V14h-9.2l-12.8,31.3
			l-13-31.3h-9.1v41.1h6.6V24.9L222.6,55h5.9L241,24.8V55h6.7V55.1z"/>
	</g>
</g>
</svg>
